<svg xmlns="http://www.w3.org/2000/svg" viewBox="0 0 361.93 203.89"><defs><style>.cls-1{fill:#3555a5;}.cls-2{fill:#66ba6d;}.cls-3,.cls-7{fill:#8954a2;}.cls-4{fill:#c792b3;}.cls-5,.cls-6{fill:#3b3a5c;}.cls-6,.cls-7{font-size:88.99px;font-family:AlegreyaSansSC-Black, Alegreya Sans SC;font-weight:800;}.cls-8{fill:#010101;}.cls-9{font-size:41.49px;fill:#403e58;font-family:AlegreyaSansSC-Bold, Alegreya Sans SC;font-weight:700;}</style></defs><g id="Layer_2" data-name="Layer 2"><g id="Layer_1-2" data-name="Layer 1"><path class="cls-1" d="M39.76,18.75a47.92,47.92,0,0,0-5.74.34,29.43,29.43,0,0,0-9,2.65A28.91,28.91,0,0,0,10.85,36.66,35.64,35.64,0,0,0,8.16,53.42,44.3,44.3,0,0,0,10,63.1a36.94,36.94,0,0,0,1.89,5.12,49.38,49.38,0,0,0,4.54,8A48.35,48.35,0,0,0,28.51,88.27a45.41,45.41,0,0,0,7.42,4.13,25.89,25.89,0,0,1-4.34-.82,37.75,37.75,0,0,1-12.46-6A45.78,45.78,0,0,1,5.61,69.89,47,47,0,0,1,.35,53.7,40.75,40.75,0,0,1,.67,41,32.6,32.6,0,0,1,4.82,29.9a30.29,30.29,0,0,1,3.93-5.21,26.47,26.47,0,0,1,11-7,29.45,29.45,0,0,1,18.24,0l1.65.54a.62.62,0,0,0,.12.44"/><path class="cls-2" d="M39.76,18.75a.62.62,0,0,1-.12-.44,4.89,4.89,0,0,1,0-1.79.47.47,0,0,0-.28-.57Q36.84,14.48,34.31,13a.71.71,0,0,0-.8,0,4.67,4.67,0,0,1-6.17-6.6,4.66,4.66,0,0,1,8.45,3.68.68.68,0,0,0,.4.94q2.22,1.26,4.41,2.58a.71.71,0,0,0,.89,0,4.46,4.46,0,0,1,5.27-.16.58.58,0,0,0,.87-.12c1.89-1.89,3.78-3.78,5.7-5.64.35-.34.2-.57,0-.89a4.58,4.58,0,0,1,1.05-5.61,4.67,4.67,0,1,1,1.81,8,.73.73,0,0,0-.87.16Q52.3,12.4,49.2,15.41a1.15,1.15,0,0,0-.37,1.17,4.65,4.65,0,0,1-7.36,4.53,4.79,4.79,0,0,1-1.71-2.36M59.55,4.66a2,2,0,0,0-2.07-2,2.07,2.07,0,0,0-2,2.06,2,2,0,0,0,2,2,2,2,0,0,0,2-2M44.23,19.37a2,2,0,0,0,2.05-2.05,2,2,0,0,0-4.08,0,2,2,0,0,0,2,2.05M33.3,9a2,2,0,0,0-2-2.06,2,2,0,0,0-2.05,2A2.07,2.07,0,0,0,31.28,11a2,2,0,0,0,2-2"/><path class="cls-3" d="M255.27,72.72A16.28,16.28,0,0,1,241,50.66l-14.27-8.25A32.66,32.66,0,0,0,255.27,89.1Z"/><path class="cls-4" d="M241.77,48.94a16.27,16.27,0,0,1,28.87,0l14.19-8.2a33,33,0,0,0-5.54-7.36,32.69,32.69,0,0,0-51.71,7.36Z"/><path class="cls-5" d="M271.41,50.66a16.28,16.28,0,0,1-14.27,22.06V89.1a32.68,32.68,0,0,0,28.55-46.69Z"/><text class="cls-6" transform="translate(32.91 86.59)">S</text><text class="cls-6" transform="translate(78.11 86.59)">T</text><text class="cls-6" transform="translate(122.52 86.59)">A</text><text class="cls-6" transform="translate(176.53 86.59)">T</text><text class="cls-7" transform="translate(32.66 156.31)">B</text><text class="cls-7" transform="translate(86.85 156.31)">E</text><text class="cls-7" transform="translate(133.22 156.31)">R</text><text class="cls-7" transform="translate(187.58 156.31)">R</text><text class="cls-7" transform="translate(241.95 156.31)">Y</text><path class="cls-8" d="M38.08,181.54l5.15-11.19H44l5.15,11.19h-.88l-4.86-10.68h.35L39,181.54ZM40,178.39l.27-.69h6.7l.27.69Z"/><path class="cls-8" d="M55.05,173.13a3.86,3.86,0,0,1,1.78.39A2.69,2.69,0,0,1,58,174.7a4.15,4.15,0,0,1,.43,2v4.88h-.8v-4.81a3,3,0,0,0-.71-2.15,2.66,2.66,0,0,0-2-.73,3.38,3.38,0,0,0-1.69.4,2.64,2.64,0,0,0-1.1,1.12,3.67,3.67,0,0,0-.37,1.72v4.45H51v-8.35h.77v2.32l-.12-.26a3.13,3.13,0,0,1,1.27-1.55A3.86,3.86,0,0,1,55.05,173.13Z"/><path class="cls-8" d="M64,181.6a4.12,4.12,0,0,1-1.6-.29,2.31,2.31,0,0,1-1-.84,2.21,2.21,0,0,1-.36-1.25,2.38,2.38,0,0,1,.29-1.16,2.16,2.16,0,0,1,1-.85,4.31,4.31,0,0,1,1.84-.32h3.07v.62H64.11a2.65,2.65,0,0,0-1.81.48,1.65,1.65,0,0,0,.09,2.48,2.68,2.68,0,0,0,1.71.48,3.18,3.18,0,0,0,1.78-.48A2.92,2.92,0,0,0,67,179.08l.22.54A2.87,2.87,0,0,1,66,181.07,3.71,3.71,0,0,1,64,181.6Zm3-.06v-1.9l0-.29v-3.14a2.35,2.35,0,0,0-.63-1.77,2.55,2.55,0,0,0-1.85-.61,4.27,4.27,0,0,0-1.61.3,4.2,4.2,0,0,0-1.27.76l-.4-.58a4.57,4.57,0,0,1,1.51-.87,5.33,5.33,0,0,1,1.83-.31,3.37,3.37,0,0,1,2.39.78,3.08,3.08,0,0,1,.83,2.34v5.29Z"/><path class="cls-8" d="M71.05,181.54V169.67h.8v11.87Z"/><path class="cls-8" d="M75,184.7a2.9,2.9,0,0,1-1.07-.19,2.11,2.11,0,0,1-.86-.56l.4-.6a2,2,0,0,0,.69.49,2.16,2.16,0,0,0,.86.16,1.74,1.74,0,0,0,1-.32,2.93,2.93,0,0,0,.82-1.17l.57-1.27.12-.15,3.53-7.9h.82l-4.29,9.48a4.34,4.34,0,0,1-.73,1.21,2.27,2.27,0,0,1-.85.63A2.63,2.63,0,0,1,75,184.7Zm2.42-2.95-3.87-8.56h.85L77.94,181Z"/><path class="cls-8" d="M82.53,173.88v-.69h5v.69Zm3.81,7.72a2.22,2.22,0,0,1-1.69-.61,2.27,2.27,0,0,1-.58-1.66v-8h.8v7.88a1.72,1.72,0,0,0,.4,1.23,1.49,1.49,0,0,0,1.15.43,1.88,1.88,0,0,0,1.3-.46l.33.56a2,2,0,0,1-.77.45A3.34,3.34,0,0,1,86.34,181.6Z"/><path class="cls-8" d="M90.67,171.16a.62.62,0,0,1-.46-.19.61.61,0,0,1-.19-.45.65.65,0,0,1,.65-.65.66.66,0,0,1,.48.18.61.61,0,0,1,.18.45.66.66,0,0,1-.18.47A.63.63,0,0,1,90.67,171.16Zm-.4,10.38v-8.35h.8v8.35Z"/><path class="cls-8" d="M97.76,181.6a4.31,4.31,0,0,1-2.17-.54,4,4,0,0,1-1.5-1.5,4.67,4.67,0,0,1,0-4.4,4,4,0,0,1,1.5-1.5,4.66,4.66,0,0,1,4-.15,3.22,3.22,0,0,1,1.33,1.15l-.59.43a2.74,2.74,0,0,0-1.12-.94,3.52,3.52,0,0,0-1.45-.3,3.4,3.4,0,0,0-1.75.44,3.07,3.07,0,0,0-1.22,1.23,4.09,4.09,0,0,0,0,3.69A3.07,3.07,0,0,0,96,180.44a3.4,3.4,0,0,0,1.75.44,3.52,3.52,0,0,0,1.45-.3,2.74,2.74,0,0,0,1.12-.94l.59.43a3.22,3.22,0,0,1-1.33,1.15A4.22,4.22,0,0,1,97.76,181.6Z"/><path class="cls-8" d="M105.43,181.6a6.11,6.11,0,0,1-1.94-.3,3.77,3.77,0,0,1-1.4-.77l.37-.64a3.86,3.86,0,0,0,1.28.71,4.86,4.86,0,0,0,1.72.3,3.17,3.17,0,0,0,1.89-.43,1.35,1.35,0,0,0,.58-1.14,1.09,1.09,0,0,0-.3-.81,2.08,2.08,0,0,0-.79-.45,7.55,7.55,0,0,0-1.09-.27c-.39-.06-.79-.14-1.18-.23a4.12,4.12,0,0,1-1.09-.37,2,2,0,0,1-.79-.66,1.91,1.91,0,0,1-.3-1.13,2,2,0,0,1,.36-1.15,2.4,2.4,0,0,1,1-.82,4.33,4.33,0,0,1,1.76-.31,5.79,5.79,0,0,1,1.58.22,4.12,4.12,0,0,1,1.28.59l-.36.64a3.45,3.45,0,0,0-1.19-.57,5,5,0,0,0-1.33-.18,2.86,2.86,0,0,0-1.78.45,1.37,1.37,0,0,0-.57,1.12,1.17,1.17,0,0,0,.3.84,1.89,1.89,0,0,0,.79.48,7.55,7.55,0,0,0,1.09.27l1.18.23a5.57,5.57,0,0,1,1.09.36,2.09,2.09,0,0,1,.79.64,1.82,1.82,0,0,1,.3,1.1,2,2,0,0,1-.38,1.2,2.5,2.5,0,0,1-1.11.8A5,5,0,0,1,105.43,181.6Z"/><path class="cls-8" d="M119.15,173.13a3.9,3.9,0,0,1,1.79.39,2.74,2.74,0,0,1,1.18,1.18,4.15,4.15,0,0,1,.42,2v4.88h-.8v-4.81a3,3,0,0,0-.71-2.15,2.64,2.64,0,0,0-2-.73,3.38,3.38,0,0,0-1.69.4,2.64,2.64,0,0,0-1.1,1.12,3.67,3.67,0,0,0-.38,1.72v4.45h-.8v-8.35h.77v2.32l-.11-.26A3.16,3.16,0,0,1,117,173.7,3.91,3.91,0,0,1,119.15,173.13Z"/><path class="cls-8" d="M129.1,181.6a4.23,4.23,0,0,1-2.14-.54,4,4,0,0,1-1.48-1.5,4.66,4.66,0,0,1,0-4.39,4,4,0,0,1,1.48-1.5,4.51,4.51,0,0,1,4.28,0,3.9,3.9,0,0,1,1.49,1.5,4.73,4.73,0,0,1,0,4.39,3.9,3.9,0,0,1-1.49,1.5A4.23,4.23,0,0,1,129.1,181.6Zm0-.72a3.37,3.37,0,0,0,1.73-.44,3.05,3.05,0,0,0,1.2-1.24,4.15,4.15,0,0,0,0-3.68,3.09,3.09,0,0,0-1.2-1.23,3.37,3.37,0,0,0-1.73-.44,3.31,3.31,0,0,0-1.72.44,3.09,3.09,0,0,0-1.2,1.23,4.07,4.07,0,0,0,0,3.68,3.05,3.05,0,0,0,1.2,1.24A3.31,3.31,0,0,0,129.1,180.88Z"/><path class="cls-8" d="M134.38,173.88v-.69h5v.69Zm3.8,7.72a2.23,2.23,0,0,1-1.69-.61,2.31,2.31,0,0,1-.58-1.66v-8h.8v7.88a1.72,1.72,0,0,0,.4,1.23,1.49,1.49,0,0,0,1.15.43,1.86,1.86,0,0,0,1.3-.46l.33.56a2,2,0,0,1-.77.45A3.34,3.34,0,0,1,138.18,181.6Z"/><path class="cls-8" d="M148.48,181.6a4.17,4.17,0,0,1-1.61-.29,2.37,2.37,0,0,1-1-.84,2.21,2.21,0,0,1-.36-1.25,2.28,2.28,0,0,1,.3-1.16,2.13,2.13,0,0,1,1-.85,4.31,4.31,0,0,1,1.84-.32h3.07v.62h-3a2.68,2.68,0,0,0-1.82.48,1.59,1.59,0,0,0-.52,1.2,1.57,1.57,0,0,0,.61,1.28,2.72,2.72,0,0,0,1.71.48,3.15,3.15,0,0,0,1.78-.48,2.81,2.81,0,0,0,1.08-1.39l.23.54a2.94,2.94,0,0,1-1.15,1.45A3.67,3.67,0,0,1,148.48,181.6Zm3-.06v-1.9l0-.29v-3.14a2.35,2.35,0,0,0-.63-1.77,2.52,2.52,0,0,0-1.84-.61,4.23,4.23,0,0,0-1.61.3,4.09,4.09,0,0,0-1.27.76l-.4-.58a4.42,4.42,0,0,1,1.5-.87,5.43,5.43,0,0,1,1.84-.31,3.35,3.35,0,0,1,2.38.78,3,3,0,0,1,.83,2.34v5.29Z"/><path class="cls-8" d="M155.55,181.54v-8.35h.76v2.29l-.07-.26a2.89,2.89,0,0,1,1.18-1.55,3.74,3.74,0,0,1,2.08-.54v.78h-.19a2.78,2.78,0,0,0-2.18.87,3.5,3.5,0,0,0-.78,2.42v4.35Z"/><path class="cls-8" d="M164.89,181.6a4.23,4.23,0,0,1-2.14-.54,4,4,0,0,1-1.49-1.5,4.66,4.66,0,0,1,0-4.39,4,4,0,0,1,1.49-1.5,4.51,4.51,0,0,1,4.28,0,4,4,0,0,1,1.49,1.5,4.73,4.73,0,0,1,0,4.39,4,4,0,0,1-1.49,1.5A4.23,4.23,0,0,1,164.89,181.6Zm0-.72a3.31,3.31,0,0,0,1.72-.44,3,3,0,0,0,1.2-1.24,4.15,4.15,0,0,0,0-3.68,3,3,0,0,0-1.2-1.23,3.58,3.58,0,0,0-3.44,0,3.09,3.09,0,0,0-1.2,1.23,4.07,4.07,0,0,0,0,3.68,3.05,3.05,0,0,0,1.2,1.24A3.29,3.29,0,0,0,164.89,180.88Z"/><path class="cls-8" d="M174.93,181.6a4.15,4.15,0,0,1-1.86-.39,2.68,2.68,0,0,1-1.2-1.18,4,4,0,0,1-.43-2v-4.88h.8V178a3,3,0,0,0,.72,2.15,2.72,2.72,0,0,0,2,.73,3.13,3.13,0,0,0,1.63-.4,2.67,2.67,0,0,0,1.06-1.12,3.86,3.86,0,0,0,.37-1.72v-4.45h.8v8.35h-.77v-2.32l.11.27A3.06,3.06,0,0,1,177,181,3.59,3.59,0,0,1,174.93,181.6Z"/><path class="cls-8" d="M186.31,173.13a3.87,3.87,0,0,1,1.79.39,2.74,2.74,0,0,1,1.18,1.18,4.15,4.15,0,0,1,.42,2v4.88h-.8v-4.81a3,3,0,0,0-.71-2.15,2.62,2.62,0,0,0-2-.73,3.38,3.38,0,0,0-1.69.4,2.64,2.64,0,0,0-1.1,1.12,3.67,3.67,0,0,0-.37,1.72v4.45h-.8v-8.35H183v2.32l-.11-.26a3.13,3.13,0,0,1,1.27-1.55A3.85,3.85,0,0,1,186.31,173.13Z"/><path class="cls-8" d="M196.21,181.6a4.2,4.2,0,0,1-2.1-.53,4,4,0,0,1-1.48-1.5,4.79,4.79,0,0,1,0-4.42,4,4,0,0,1,1.48-1.49,4.2,4.2,0,0,1,2.1-.53,3.9,3.9,0,0,1,2,.51,3.78,3.78,0,0,1,1.41,1.45,4.63,4.63,0,0,1,.52,2.28,4.73,4.73,0,0,1-.51,2.25,3.61,3.61,0,0,1-1.4,1.47A4,4,0,0,1,196.21,181.6Zm0-.72a3.31,3.31,0,0,0,1.72-.44,3.05,3.05,0,0,0,1.2-1.24,4.07,4.07,0,0,0,0-3.68,3.09,3.09,0,0,0-1.2-1.23,3.58,3.58,0,0,0-3.44,0,3.23,3.23,0,0,0-1.2,1.23,4.07,4.07,0,0,0,0,3.68,3.18,3.18,0,0,0,1.2,1.24A3.31,3.31,0,0,0,196.26,180.88Zm3.37.66V178.8l.15-1.45-.16-1.46v-6.22h.8v11.87Z"/><path class="cls-8" d="M206.53,173.88v-.69h5v.69Zm3.8,7.72a2.23,2.23,0,0,1-1.69-.61,2.31,2.31,0,0,1-.58-1.66v-8h.8v7.88a1.72,1.72,0,0,0,.4,1.23,1.49,1.49,0,0,0,1.15.43,1.86,1.86,0,0,0,1.3-.46l.33.56a2,2,0,0,1-.77.45A3.34,3.34,0,0,1,210.33,181.6Z"/><path class="cls-8" d="M218.34,173.13a3.87,3.87,0,0,1,1.79.39,2.74,2.74,0,0,1,1.18,1.18,4.15,4.15,0,0,1,.42,2v4.88h-.8v-4.81a3,3,0,0,0-.71-2.15,2.64,2.64,0,0,0-2-.73,3.38,3.38,0,0,0-1.69.4,2.64,2.64,0,0,0-1.1,1.12,3.67,3.67,0,0,0-.37,1.72v4.45h-.8V169.67h.8v5.84l-.15-.26a3.16,3.16,0,0,1,1.26-1.55A3.91,3.91,0,0,1,218.34,173.13Z"/><path class="cls-8" d="M228.42,181.6a4.49,4.49,0,0,1-2.23-.54,3.91,3.91,0,0,1-1.52-1.5,4.29,4.29,0,0,1-.55-2.19,4.45,4.45,0,0,1,.52-2.2,3.76,3.76,0,0,1,1.43-1.5,4.16,4.16,0,0,1,4.08,0,3.81,3.81,0,0,1,1.43,1.47,4.61,4.61,0,0,1,.52,2.2s0,.07,0,.11a.41.41,0,0,0,0,.12h-7.37v-.63h6.94l-.32.31a3.48,3.48,0,0,0-.41-1.75,3.12,3.12,0,0,0-1.14-1.22,3.35,3.35,0,0,0-3.32,0,3,3,0,0,0-1.14,1.22,3.61,3.61,0,0,0-.42,1.76v.15a3.51,3.51,0,0,0,.46,1.81,3.15,3.15,0,0,0,1.25,1.23,3.63,3.63,0,0,0,1.82.44,3.92,3.92,0,0,0,1.5-.28,3.07,3.07,0,0,0,1.17-.88l.47.52a3.41,3.41,0,0,1-1.37,1A4.55,4.55,0,0,1,228.42,181.6Z"/><path class="cls-8" d="M39.69,200.73V188.86h.8v6.22l-.16,1.46.13,1.45v2.74Zm4.19.06a4,4,0,0,1-2-.51,3.61,3.61,0,0,1-1.4-1.47,5.19,5.19,0,0,1,0-4.53,3.69,3.69,0,0,1,1.4-1.45,4,4,0,0,1,2-.51,4.25,4.25,0,0,1,2.12.53,3.83,3.83,0,0,1,1.47,1.49,4.79,4.79,0,0,1,0,4.42,3.79,3.79,0,0,1-1.47,1.5A4.25,4.25,0,0,1,43.88,200.79Zm0-.72a3.31,3.31,0,0,0,1.72-.44,3,3,0,0,0,1.21-1.24,4.07,4.07,0,0,0,0-3.68,3,3,0,0,0-1.21-1.23,3.58,3.58,0,0,0-3.44,0,3.09,3.09,0,0,0-1.2,1.23,4.07,4.07,0,0,0,0,3.68,3.05,3.05,0,0,0,1.2,1.24A3.29,3.29,0,0,0,43.84,200.07Z"/><path class="cls-8" d="M53.88,200.79A4.15,4.15,0,0,1,52,200.4a2.74,2.74,0,0,1-1.2-1.18,4,4,0,0,1-.43-2v-4.88h.8v4.81a3,3,0,0,0,.72,2.15,2.72,2.72,0,0,0,2,.73,3.13,3.13,0,0,0,1.63-.4,2.67,2.67,0,0,0,1.06-1.12,3.86,3.86,0,0,0,.37-1.72v-4.45h.8v8.35H57v-2.32l.11.27a3.06,3.06,0,0,1-1.22,1.54A3.59,3.59,0,0,1,53.88,200.79Z"/><path class="cls-8" d="M63.3,200.79a6.18,6.18,0,0,1-1.95-.3,3.72,3.72,0,0,1-1.39-.77l.36-.64a4,4,0,0,0,1.28.71,4.91,4.91,0,0,0,1.73.3,3.22,3.22,0,0,0,1.89-.43,1.37,1.37,0,0,0,.57-1.14,1.13,1.13,0,0,0-.29-.81,2,2,0,0,0-.8-.45,7.74,7.74,0,0,0-1.08-.27c-.4-.06-.79-.14-1.19-.23a4.58,4.58,0,0,1-1.08-.37,1.82,1.82,0,0,1-1.09-1.79,2,2,0,0,1,.35-1.15,2.5,2.5,0,0,1,1.06-.82,4.3,4.3,0,0,1,1.76-.31,5.72,5.72,0,0,1,1.57.22,4.07,4.07,0,0,1,1.29.59l-.37.64a3.4,3.4,0,0,0-1.18-.57,5,5,0,0,0-1.33-.18,2.84,2.84,0,0,0-1.78.45,1.37,1.37,0,0,0-.57,1.12,1.21,1.21,0,0,0,.29.84,2,2,0,0,0,.8.48,7.74,7.74,0,0,0,1.08.27l1.19.23a5.7,5.7,0,0,1,1.08.36,2.12,2.12,0,0,1,.8.64,1.89,1.89,0,0,1,.29,1.1,2,2,0,0,1-.37,1.19,2.39,2.39,0,0,1-1.12.8A4.78,4.78,0,0,1,63.3,200.79Z"/><path class="cls-8" d="M72.91,192.32a3.86,3.86,0,0,1,1.78.39,2.69,2.69,0,0,1,1.18,1.18,4,4,0,0,1,.43,2v4.88h-.8v-4.82a3,3,0,0,0-.71-2.14,2.65,2.65,0,0,0-2-.73,3.42,3.42,0,0,0-1.7.4A2.62,2.62,0,0,0,70,194.56a3.55,3.55,0,0,0-.38,1.72v4.45h-.8V188.86h.8v5.84l-.14-.26a3.13,3.13,0,0,1,1.26-1.56A4,4,0,0,1,72.91,192.32Z"/><path class="cls-8" d="M83.7,200.73V188.86h.8v6.22l-.16,1.46.13,1.45v2.74Zm4.19.06a3.93,3.93,0,0,1-2-.51,3.7,3.7,0,0,1-1.41-1.47,5.19,5.19,0,0,1,0-4.53,3.78,3.78,0,0,1,1.41-1.45,3.93,3.93,0,0,1,2-.51,4.25,4.25,0,0,1,2.12.53,4,4,0,0,1,1.47,1.49,4.79,4.79,0,0,1,0,4.42,3.92,3.92,0,0,1-1.47,1.5A4.25,4.25,0,0,1,87.89,200.79Zm0-.72a3.35,3.35,0,0,0,1.73-.44,3.14,3.14,0,0,0,1.21-1.24,4.07,4.07,0,0,0,0-3.68,3.18,3.18,0,0,0-1.21-1.23,3.35,3.35,0,0,0-1.73-.44,3.31,3.31,0,0,0-1.72.44,3.23,3.23,0,0,0-1.2,1.23,4.07,4.07,0,0,0,0,3.68,3.18,3.18,0,0,0,1.2,1.24A3.31,3.31,0,0,0,87.84,200.07Z"/><path class="cls-8" d="M97.89,200.79A4.12,4.12,0,0,1,96,200.4a2.81,2.81,0,0,1-1.21-1.18,4.15,4.15,0,0,1-.42-2v-4.88h.8v4.81a3,3,0,0,0,.72,2.15,2.72,2.72,0,0,0,2,.73,3.15,3.15,0,0,0,1.63-.4,2.67,2.67,0,0,0,1.06-1.12,3.86,3.86,0,0,0,.36-1.72v-4.45h.8v8.35H101v-2.32l.11.27a3.13,3.13,0,0,1-1.23,1.54A3.58,3.58,0,0,1,97.89,200.79Z"/><path class="cls-8" d="M103.82,193.07v-.69h5v.69Zm3.8,7.72a2.21,2.21,0,0,1-1.68-.61,2.27,2.27,0,0,1-.59-1.66v-8h.8v7.88a1.77,1.77,0,0,0,.4,1.23,1.49,1.49,0,0,0,1.15.43,1.85,1.85,0,0,0,1.3-.46l.33.56a2,2,0,0,1-.77.45A3.29,3.29,0,0,1,107.62,200.79Z"/><path class="cls-8" d="M115.67,200.73v-8.35h.76v2.29l-.08-.26a3,3,0,0,1,1.19-1.55,3.74,3.74,0,0,1,2.08-.54v.78h-.2a2.75,2.75,0,0,0-2.17.88,3.49,3.49,0,0,0-.78,2.42v4.35Z"/><path class="cls-8" d="M122.22,190.35a.62.62,0,0,1-.46-.19.61.61,0,0,1-.19-.45.6.6,0,0,1,.19-.46.65.65,0,0,1,.93,0,.58.58,0,0,1,.19.45.63.63,0,0,1-.19.47A.6.6,0,0,1,122.22,190.35Zm-.4,10.38v-8.35h.8v8.35Z"/><path class="cls-8" d="M129.24,200.42a4.37,4.37,0,0,1-2.12-.51,3.93,3.93,0,0,1-1.48-1.44,4,4,0,0,1-.55-2.11,4,4,0,0,1,.55-2.11,3.81,3.81,0,0,1,1.48-1.42,4.37,4.37,0,0,1,2.12-.51,4.27,4.27,0,0,1,2,.48,3.63,3.63,0,0,1,1.43,1.4,4.22,4.22,0,0,1,.53,2.16,4.27,4.27,0,0,1-.53,2.16,3.66,3.66,0,0,1-1.43,1.41A4.16,4.16,0,0,1,129.24,200.42Zm.23,3.47a6.44,6.44,0,0,1-2.16-.35,4.34,4.34,0,0,1-1.66-1l.43-.61a4.53,4.53,0,0,0,1.49.9,5.49,5.49,0,0,0,1.88.31,3.4,3.4,0,0,0,2.47-.78,3.32,3.32,0,0,0,.79-2.46v-2.32l.16-1.25-.12-1.24v-2.74h.76v7.45a4.14,4.14,0,0,1-1,3.08A4.19,4.19,0,0,1,129.47,203.89Zm-.16-4.19a3.62,3.62,0,0,0,1.77-.42,3.12,3.12,0,0,0,1.21-1.18,3.46,3.46,0,0,0,.44-1.74,3.41,3.41,0,0,0-.44-1.74,3.09,3.09,0,0,0-1.21-1.17,4,4,0,0,0-3.52,0,3.05,3.05,0,0,0-1.22,1.17,3.41,3.41,0,0,0-.44,1.74,3.46,3.46,0,0,0,.44,1.74,3.08,3.08,0,0,0,1.22,1.18A3.59,3.59,0,0,0,129.31,199.7Z"/><path class="cls-8" d="M141,192.32a3.83,3.83,0,0,1,1.78.39,2.77,2.77,0,0,1,1.19,1.18,4.15,4.15,0,0,1,.42,2v4.88h-.8v-4.82a3,3,0,0,0-.71-2.14,2.65,2.65,0,0,0-2-.73,3.42,3.42,0,0,0-1.7.4,2.62,2.62,0,0,0-1.09,1.12,3.67,3.67,0,0,0-.38,1.72v4.45h-.8V188.86h.8v5.84l-.14-.26a3.13,3.13,0,0,1,1.26-1.56A4,4,0,0,1,141,192.32Z"/><path class="cls-8" d="M146.29,193.07v-.69h5v.69Zm3.8,7.72a2.21,2.21,0,0,1-1.68-.61,2.27,2.27,0,0,1-.59-1.66v-8h.8v7.88a1.77,1.77,0,0,0,.4,1.23,1.49,1.49,0,0,0,1.15.43,1.85,1.85,0,0,0,1.3-.46l.34.56a2.16,2.16,0,0,1-.78.45A3.29,3.29,0,0,1,150.09,200.79Z"/><path class="cls-8" d="M156.76,193.07v-.69h5v.69Zm3.81,7.72a2.22,2.22,0,0,1-1.69-.61,2.27,2.27,0,0,1-.58-1.66v-8h.8v7.88a1.72,1.72,0,0,0,.4,1.23,1.47,1.47,0,0,0,1.15.43,1.84,1.84,0,0,0,1.29-.46l.34.56a2,2,0,0,1-.78.45A3.22,3.22,0,0,1,160.57,200.79Z"/><path class="cls-8" d="M167.46,200.79a4.16,4.16,0,0,1-2.13-.54,4,4,0,0,1-1.49-1.5,4.3,4.3,0,0,1-.55-2.2,4.24,4.24,0,0,1,.55-2.19,4,4,0,0,1,1.49-1.5,4.16,4.16,0,0,1,2.13-.54,4.23,4.23,0,0,1,2.14.54,3.9,3.9,0,0,1,1.49,1.5,4.34,4.34,0,0,1,.54,2.19,4.4,4.4,0,0,1-.54,2.2,3.9,3.9,0,0,1-1.49,1.5A4.23,4.23,0,0,1,167.46,200.79Zm0-.72a3.35,3.35,0,0,0,1.73-.44,3.05,3.05,0,0,0,1.2-1.24,4.15,4.15,0,0,0,0-3.68,3.09,3.09,0,0,0-1.2-1.23,3.35,3.35,0,0,0-1.73-.44,3.31,3.31,0,0,0-1.72.44,3.23,3.23,0,0,0-1.2,1.23,4.07,4.07,0,0,0,0,3.68,3.18,3.18,0,0,0,1.2,1.24A3.31,3.31,0,0,0,167.46,200.07Z"/><path class="cls-8" d="M176.85,193.07v-.69h5v.69Zm3.8,7.72a2.19,2.19,0,0,1-1.68-.61,2.27,2.27,0,0,1-.59-1.66v-8h.8v7.88a1.72,1.72,0,0,0,.4,1.23,1.49,1.49,0,0,0,1.15.43,1.85,1.85,0,0,0,1.3-.46l.33.56a2,2,0,0,1-.77.45A3.34,3.34,0,0,1,180.65,200.79Z"/><path class="cls-8" d="M188.66,192.32a3.87,3.87,0,0,1,1.79.39,2.74,2.74,0,0,1,1.18,1.18,4.15,4.15,0,0,1,.42,2v4.88h-.8v-4.82a2.94,2.94,0,0,0-.71-2.14,2.62,2.62,0,0,0-2-.73,3.38,3.38,0,0,0-1.69.4,2.64,2.64,0,0,0-1.1,1.12,3.67,3.67,0,0,0-.37,1.72v4.45h-.8V188.86h.8v5.84l-.15-.26a3.2,3.2,0,0,1,1.27-1.56A3.93,3.93,0,0,1,188.66,192.32Z"/><path class="cls-8" d="M198.74,200.79a4.49,4.49,0,0,1-2.23-.54,3.91,3.91,0,0,1-1.52-1.5,4.3,4.3,0,0,1-.55-2.2,4.43,4.43,0,0,1,.52-2.19,3.76,3.76,0,0,1,1.43-1.5,4.19,4.19,0,0,1,4.08,0,3.84,3.84,0,0,1,1.43,1.48,4.61,4.61,0,0,1,.52,2.2s0,.07,0,.11a.41.41,0,0,0,0,.12H195v-.63H202l-.32.31a3.48,3.48,0,0,0-.41-1.75,3.12,3.12,0,0,0-1.14-1.22,3.35,3.35,0,0,0-3.32,0,3,3,0,0,0-1.14,1.22,3.61,3.61,0,0,0-.42,1.76v.15a3.51,3.51,0,0,0,.46,1.81,3.15,3.15,0,0,0,1.25,1.23,3.63,3.63,0,0,0,1.82.44,3.72,3.72,0,0,0,1.5-.29,3,3,0,0,0,1.18-.87l.46.52a3.41,3.41,0,0,1-1.37,1A4.55,4.55,0,0,1,198.74,200.79Z"/><path class="cls-8" d="M209,200.73V188.86h.8v6.22l-.16,1.46.13,1.45v2.74Zm4.19.06a3.93,3.93,0,0,1-2-.51,3.61,3.61,0,0,1-1.4-1.47,5.19,5.19,0,0,1,0-4.53,3.69,3.69,0,0,1,1.4-1.45,3.93,3.93,0,0,1,2-.51,4.25,4.25,0,0,1,2.12.53,3.83,3.83,0,0,1,1.47,1.49,4.79,4.79,0,0,1,0,4.42,3.79,3.79,0,0,1-1.47,1.5A4.25,4.25,0,0,1,213.19,200.79Zm0-.72a3.31,3.31,0,0,0,1.72-.44,3,3,0,0,0,1.21-1.24,4.07,4.07,0,0,0,0-3.68,3,3,0,0,0-1.21-1.23,3.58,3.58,0,0,0-3.44,0,3.09,3.09,0,0,0-1.2,1.23,4.07,4.07,0,0,0,0,3.68,3.05,3.05,0,0,0,1.2,1.24A3.29,3.29,0,0,0,213.15,200.07Z"/><path class="cls-8" d="M223.19,200.79a4.49,4.49,0,0,1-2.23-.54,3.91,3.91,0,0,1-1.52-1.5,4.3,4.3,0,0,1-.55-2.2,4.43,4.43,0,0,1,.52-2.19,3.76,3.76,0,0,1,1.43-1.5,4.19,4.19,0,0,1,4.08,0,3.84,3.84,0,0,1,1.43,1.48,4.61,4.61,0,0,1,.52,2.2s0,.07,0,.11a.41.41,0,0,0,0,.12h-7.37v-.63h6.94l-.32.31a3.48,3.48,0,0,0-.41-1.75,3.12,3.12,0,0,0-1.14-1.22,3.35,3.35,0,0,0-3.32,0,3,3,0,0,0-1.14,1.22,3.61,3.61,0,0,0-.42,1.76v.15a3.51,3.51,0,0,0,.46,1.81,3.15,3.15,0,0,0,1.25,1.23,3.63,3.63,0,0,0,1.82.44,3.72,3.72,0,0,0,1.5-.29,3,3,0,0,0,1.17-.87l.47.52a3.41,3.41,0,0,1-1.37,1A4.55,4.55,0,0,1,223.19,200.79Z"/><path class="cls-8" d="M229.34,200.73v-8.35h.77v2.29l-.08-.26a3,3,0,0,1,1.19-1.55,3.71,3.71,0,0,1,2.07-.54v.78h-.19a2.73,2.73,0,0,0-2.17.88,3.49,3.49,0,0,0-.79,2.42v4.35Z"/><path class="cls-8" d="M235.5,200.73v-8.35h.77v2.29l-.08-.26a2.94,2.94,0,0,1,1.18-1.55,3.76,3.76,0,0,1,2.08-.54v.78h-.19a2.77,2.77,0,0,0-2.18.88,3.49,3.49,0,0,0-.78,2.42v4.35Z"/><path class="cls-8" d="M241.85,203.89a3,3,0,0,1-1.08-.19,2.07,2.07,0,0,1-.85-.56l.39-.61a2.16,2.16,0,0,0,.7.5,2.13,2.13,0,0,0,.86.16,1.69,1.69,0,0,0,1-.32,2.83,2.83,0,0,0,.82-1.17l.58-1.28.11-.14,3.54-7.9h.81l-4.28,9.48a4.59,4.59,0,0,1-.73,1.21,2.3,2.3,0,0,1-.86.63A2.61,2.61,0,0,1,241.85,203.89Zm2.41-2.95-3.87-8.56h.85l3.52,7.85Z"/><text class="cls-9" transform="translate(303.06 126.33)">LLP</text></g></g></svg>